<?xml version="1.0" encoding="utf-8"?>
<!-- Generator: Adobe Illustrator 16.0.0, SVG Export Plug-In . SVG Version: 6.00 Build 0)  -->
<!DOCTYPE svg PUBLIC "-//W3C//DTD SVG 1.1//EN" "http://www.w3.org/Graphics/SVG/1.1/DTD/svg11.dtd">
<svg version="1.1" id="logo" xmlns="http://www.w3.org/2000/svg" xmlns:xlink="http://www.w3.org/1999/xlink" x="0px" y="0px"
	 width="300.9px" height="96.492px" viewBox="142.596 347.244 300.9 96.492" enable-background="new 142.596 347.244 300.9 96.492"
	 xml:space="preserve">
<g>
	<path fill="#3D64AC" d="M208.488,387.432L168.3,347.244l-8.16,8.16l15.096,15.096l-32.64,32.64l40.188,40.188l8.16-8.16
		l-15.096-15.096L208.488,387.432z M160.752,404.364l24.276-24.276l4.896,4.896l-24.276,24.48L160.752,404.364z"/>
	<g>
		<path fill="#3D64AC" d="M236.232,358.872v12.24h13.464v7.14h-13.464v27.744c0,6.324,1.836,9.996,6.936,9.996
			c2.448,0,4.08-0.204,5.508-0.612l0.408,7.14c-1.836,0.612-4.692,1.225-8.364,1.225c-4.284,0-7.956-1.428-9.996-3.876
			c-2.448-2.856-3.672-7.344-3.672-13.464v-28.152h-7.956v-7.14h7.956v-9.588L236.232,358.872z"/>
		<path fill="#3D64AC" d="M299.88,396.612c0,18.972-13.26,27.336-25.704,27.336c-13.872,0-24.684-10.2-24.684-26.521
			c0-17.136,11.424-27.132,25.5-27.132C289.884,370.092,299.88,380.904,299.88,396.612z M259.284,397.02
			c0,11.221,6.324,19.788,15.504,19.788c8.976,0,15.708-8.363,15.708-19.991c0-8.772-4.284-19.584-15.504-19.584
			C263.976,377.232,259.284,387.432,259.284,397.02z"/>
		<path fill="#3D64AC" d="M304.572,388.044c0-6.528-0.204-11.832-0.408-16.728h8.364l0.611,8.772h0.204
			c3.672-6.324,9.792-9.792,18.36-9.792c12.444,0,21.828,10.608,21.828,26.112c0,18.563-11.424,27.54-23.46,27.54
			c-6.732,0-12.853-3.061-15.912-8.16h-0.204v27.948h-9.18v-55.692H304.572z M313.752,401.712c0,1.428,0.204,2.652,0.408,3.876
			c1.632,6.528,7.344,11.016,14.076,11.016c9.792,0,15.708-8.159,15.708-19.787c0-10.2-5.509-18.973-15.301-18.973
			c-6.323,0-12.443,4.488-14.075,11.424c-0.408,1.224-0.612,2.652-0.612,3.672v8.772H313.752z"/>
		<path fill="#3D64AC" d="M371.28,358.872v12.24h13.464v7.14H371.28v27.744c0,6.324,1.836,9.996,6.936,9.996
			c2.448,0,4.08-0.204,5.508-0.612l0.408,7.14c-1.836,0.612-4.691,1.225-8.364,1.225c-4.283,0-7.956-1.428-9.996-3.876
			c-2.651-2.856-3.672-7.344-3.672-13.464v-28.152h-7.956v-7.14h7.956v-9.588L371.28,358.872z"/>
		<path fill="#3D64AC" d="M427.176,410.28c0,4.487,0.204,8.771,0.816,12.239h-8.364l-0.816-6.527h-0.407
			c-2.856,4.08-8.364,7.752-15.708,7.752c-10.404,0-15.708-7.344-15.708-14.688c0-12.443,11.016-19.176,31.008-19.176v-1.02
			c0-4.08-1.225-11.832-11.628-11.832c-4.896,0-9.792,1.428-13.464,3.876l-2.04-6.324c4.284-2.652,10.607-4.488,16.932-4.488
			c15.708,0,19.584,10.812,19.584,21.012v19.176H427.176z M418.2,396.408c-10.2-0.204-21.828,1.632-21.828,11.628
			c0,6.12,4.08,8.976,8.771,8.976c6.732,0,11.221-4.284,12.648-8.567c0.408-1.021,0.408-2.04,0.408-3.061V396.408z"/>
		<path fill="#3D64AC" d="M434.112,347.244h9.384v75.479h-9.384V347.244z"/>
	</g>
</g>
</svg>
